<mxfile host="65bd71144e">
    <diagram id="97vm5mejKEMCPcEz5Ba8" name="Page-1">
        <mxGraphModel dx="894" dy="436" grid="1" gridSize="10" guides="1" tooltips="1" connect="1" arrows="1" fold="1" page="1" pageScale="1" pageWidth="850" pageHeight="1100" math="0" shadow="0">
            <root>
                <mxCell id="0"/>
                <mxCell id="1" parent="0"/>
                <mxCell id="2" value="" style="shape=image;verticalLabelPosition=bottom;labelBackgroundColor=default;verticalAlign=top;aspect=fixed;imageAspect=0;image=data:image/png,iVBORw0KGgoAAAANSUhEUgAAAR0AAACXCAYAAAAoNo9xAAAAAXNSR0IArs4c6QAAAARnQU1BAACxjwv8YQUAAAAJcEhZcwAADsMAAA7DAcdvqGQAACSkSURBVHhe7Z0NcBVVmvf/70qJIyGJgYSrgAnmKhJEiCCZiIrsJVPJ4EgJAUrdHZ0tMaYEa3ZWNBsCRUHMxtF1pgYsjFiljgsWkmTKKZmkjHdYVMxGxYAKjssNJAKSEAj5VHGx5n1O9+mvezs397P5yPOr6rrd53SfPt23z7+f5zmnu/9fenr638EwDOMQ/yB/GYZhHIFFh2EYR2HRYRjGUVh0GIZxFBYdhmEchUWHYRhHYdFhGMZRWHQYhnEUFh2GYRyFRYdhGEdh0WEYxlFYdBiGcZRLUHQq8c/eI1ijTPtRkCeTY4IHVd5n4VWmtaiIadlWlq/rROsLZ+XScEee99r7aS6WnMW79T14Ri4xznAJik4JXvdMwgbPdrTKlNjhRZFnFTyeevhkSlx4pAerf3o5tj82UibEG7OYatMKPCpz407xijgISiiMxPb/+QHL3hzAcpnCxB92ry446O67qBu+2iQ8JVOcoQ9NlUJQtWkTXpQ55x8p9ou20Vxs2bIuFds7T2Hluh9lChNvonufTnED1hS65QLQ3ViBjWVb1IW8rVhZchuS1SXAtx0bikrUebHdjL3Y0lmA5bmJSpJlW7rvFNSWYlaSXCS74m1PHprlUtCydYSbVYBTldNR1yCTJK7y/fp+A8oOCWEZzMHpyvUo9Sv70apnsUQ/JaIhm9cR2+XDOGMC6zrCrVqdmoiMcKwcYSnM6EJTajZykqi8ah+mFmYjoacZFdRQUb4WpVk+ZV5rtB5L2uDHI1DWTd0DT5HcOu9+vFWSgjpFmNyoICsFm/dgTIl2bG3YYREtsU4R1U0uavlKOVRPmWpgbK/sO3e0muyrN+qg4V+GaR2x7ePYhrrUIv0/8VWvQtFmdV7HM4DPVp1DXb6N0M9djT8+fgvwye/xy/94XyYy0RC5paMITho+qRSujDoZokENnkShu1rLI1fHvQwry01GLC0vT61T86mRJOcuRbbMcpWvwKxOEhJZ7gaLKIRQdjCo3stzT5LQqNtvaUzD3bVb4ZLZ0SAu8iWp1NCltVDRCOSUGG7Ko1XUKEWjEPmVzeinNF+1uaH/iHlZ38K3PwK3yp2NMQ2rsMM3GjmFQhDIBUxyg04dvLt96JfzKjSfNRr9Bz+KkeVA+ywRoiWOuwpNPekoKNekVQpOpzxuZZKC1LANC8VydRsgBNI/n/CWrVfSKhr7ZIoZEksSnHYSEnU7OmZ3Pt7S9w0k5BahoLNKL8NNIhXgxnmvwBe93Zj5iFxm4kqEokOWSJ6brJNNAVaEwFVegIyeD9Gg31FK8LoQlqy7jMZN+Vs062TzXrQiDS5zYNY9UxchMyGVHYTsGW60Vhsi1l5Wh9akm5AddVDYg6V0R/ZRQ9Iasrdsm9IAs4vFkgfZ1BZ8+2Ruw0c40EPHM95oIMA5pCVeiZMtcjEcqNG+Kc9Jf2O9ycogqE51JEZT58p95c3G1KQ21JWZI1NCOEwxnTBjLIZ4+uA92IeE1HQlHcX5ZOGQ5eJvocQAT/kcuE3HrbhhJGAJWbONupPIL5THqYpvCq5XlsxchqOdQNo1Ni7W7qfxy8WL2cqJIRGKTibGkqncfVyzbGzoPIp2ORsu7WXT8bbPjbtlL1SAFRNx2cvhSgUyCrXeLTEtQ4bMjZ4+nB40wtyG0yQy7hmyOSgNvw8HqCHoeEh05GyseXGf0Rg9Qnz8hck/phOj+IlnfAoJYhcOyeWY09kRk3r6Oq9EYuo5ucTEkwhFpwWnqAEFJXWixfJwjQ+vOTUXGe5Td26pVXiiLLtVd820KTDuExmjMcZsuCAdY0xxqa/pbgoy/xVLgtwCNG6zxlC8I3BSzsaczV9Kd0u4VrCKXRzxHu+Sc3EidZzFIlNELgLcqd+it3OEXGLiSYSiswXNB3vJYmiwdYHad3+B7qTbkKe4FYJK5OUmorXhgQgsFKvARVd28HrriOBhTQ1qXlmNO2TS0HjRTO3YHDOwmP+UXuAWAVLDmtDMfgMSnd5vkZYpF2OKF2+KGFPx/Zjaucc2YBwUvXGrcZTA4O8gKGKXjcdNcZYAfF1+MafQUN2lbCzVr4VAFzc0fsREsoBPfnOZXDahXQvPPSgTmGiJOJAsXCAlCKu7KSY3iARgY+WHSNbdmGVIbqzA67rvHQzRc2WUucZbqgSV9SD1UGWLALdMz0AiZpWIeWOQoF2914QaSBa9RErMQ/TSaDEQY5Dgi0WrsKMzG6UyLlKa24UdmpuixFXSsUTmaZM56CliC7sOXgn3/PiMG1Eb6Wi0a3GlEFFiUyTT6nHNwelqNQgeGqK7ux7tuUWm4/YbA0Tn5g9K0N0/XwSh1TSlB0uzEqukrNN2Cyub4SrUtsuHq7EqsHdqKDzf46bEZOx9SS6b2X1MtT4nTQPLTmzgT9A4hdK1q3UzS5Q0Nw5YuqrFKFmy2WrTMd+uEUSDXR0YPPNCGwo6J+DmdTaWDtm6q1/5NW45/WcsfuI1mcZEQ8SWDhMm7pQAl0QEdBPQha8trs5IzK9NhntRrIfnk9VQLOJI/gHk4Y0YF7UsdSw22gjOHf/+R9TUsODEGrZ0HMQ6cFDgP4jOIKJBgraYBubZDa4b1gir8nvstRsUyMQNFh2GYRyF3SuGYRyFRYdhGEdh0WEYxlFYdBiGcRQWHYZhHOWy5OTkdXI+Klz3zcbMa06hrcXuZUgj4X5sJib933GcCOc5iBnpWPAvk3HDHeNpSsLffZ3oCn0obNxI+FkW8pZNQmJfmMfDDIq4fubec+H8x0z8iI2lc/U4TJ7Uga/eGeSdvjNcmIw2fLVPLodEImb+fBza//IRdlaI6SB8J2RWnFEawM+celUowwwvYiI6CdPGAJ+0D/rApWsKiceejjCe1yGu/gkS0IHjYQmVM/S/c1ARwr0XYN0uVtrfcPbGwpw/YjA4kCyS0gnoeWWQC4asoLm/ugJfVbSF94S5cK1+DuwN2C5wf8IymXx6P3YLS0tsN+UMdp+egLmz1AcP+j+ReTqijBtNLxRrw+4XOgBym7RtLBz5G3a+0Usz5u368ZXNMStu5iS5YFlHuJiZQO0xJP1KK6PD5vgGR7h1Rv1M2yrnOJ2E3zhOtR7aOqLeV+H4K99jMq2nlCCPWbkR6P/RGYzXjs+cTwy6bwX786nfZJT/cpxc8Ps/ZN3Vku3OR7CyhzguwlpvEjeynPlmcX6JOqaT8LNM3HT2GJoa7V0r1y+mYmxLCw7YxnoC0eIlN1wvLpQEXKPEc2ia0IdDX4h9jKS0RJzdZ/j+CdPGY+x3HWo8yZWMG2ZnIOPsYezcfBiH+kbgprkJ6Hu/x3Sh3ogEuvAbXv0ah94/jkMfD+AHyvmhpVNZ7pswHoktpnxlv4KzOCGW3+9Dol8dBKLuuRNOYPfz/4sDtN6Jn6Ri5oIr5b5HIGX2tZj80yuokexDU90p/P3mTEy6arA4mB/UcPPm/h81yoNoVsoej9z8f8AJUff+AbQpxzlOjYm40zF39oCpAYtzloEbss/ic2V72vfsyZis7Xt0AjKyxyPjDq1udHx5bozVYlbB9k3Zrvum4xrz+ZLpKnS+/2WsLFecu+PW4xV1F9v4zuGa7BE4rf9PAiHUN2HsF1rZar1nus3Xgvm4/OpNgpa74O8yT903x+DOP1G6VyPhInFo/1JYAXYkYvykfhz/3F6Q7NBcl51/IctDufPJmI5iaYSIuNtp6+87Qw1vFBKuVhcTfjYBLsrfO1j8KWISMZnuqGY3sv+dFnzVMw7jZ8gEov0vmuVzFu2H+pEwJrTYkeKi/sWwAvrfOYb2pDFwyePCPjrmT4DJd42De451XRVhdWlp9vs26taL40foXKWp+UPum0i4PllaK3YkYPy0CGJkIhaYZI4VnoWvtg39k64yLB/LcVnrrWI9/8z5JzrRGSJArDTwI8cCXJDzScIYahpd35nuprGkHz1CK2POSCSkUOP/+WwsKNUmk8shUUQuJR2Tu/4WmguRIuJmGtb4mYixqC7Q0Ptuf2M/vgJZVzJ/pqWR92IviQJmTZfbpgfUOyg930f+X53owG66eel1f2xcEGFknCIq0RF3wP5D3YNcFENZQeeH/tPxkRuVBCQZoQtiJJL015VGj9GTp03WmJJwc8Yf+hsJz42h9b6FIb7B900WyAsynQQmgRq5RXhE45fb7f5kFLm3YQhP0hVWoRjntzwUZAFqdd7bRcLIwnPeiVx0yF+OfTd5qBiNW8RRjMDt0PR/fprM8xv97sZWhDAFdxfsUE17F7k22naaKxf9OVDdIdfPgzTWGelK4Pird3oVFwSzMuE2uT8W6L+bKVzBkG4IIezbzIngQtZ/ckDOhYDiGtN1pgvoSMV17A/SUxqM+N5wmFCJuPdK6RUYc2zQWIulRykSlB4Pu94rwtwbcoRcCdxo7b2a871fD4df75qlx4Tw6/FQLu7HpmOyZqVovVfm/epYe7GsvVfm3hi1zKQ9Ru/JUOfQH2V9U0+MXm9ZL3PPjFoPrW5+PUCEpRdHOR/BexgH3bcMzJvLtvROBZwz6/kKKFfBfN78ytd7EgWB/635ugss2653jHGaCEXHpiGbCeEiZpxkiP+LYRyEX+I1LGDRYS4cYjIimWEYJlTY0mEYxlHY0mEYxlFYdBiGcRQWHYZhHIVFh2EYR2HRYRjGUVh0LjTE98a9z8Jb5ZEJFxG3bELOmjo5VWPcYI9hOMzI/GqlThm3yISY8yO2vdmGdx+RixLxjXT/tAA8A/isvg2t9Z3YdhH+5ZEw/ERHa9TmqfZ+OPV/i08Lv1Vu+bbwJcLDyFiQiY6dBWjaIKZCdDgyEHEexq2Mp6AMzTMvHMNtnS7Mf0kmSJ6qHYu0RcHEhMSq6BTwPxOQkZ+K+4fJF5+HqaUjviG+Ch5tWrQNF8z/3bANC0WdLrZvjl99LUahBV2fyuULiLP1hYoQtsajbo/0YFlmMrbbfXPeOwo3116O24oGsFwmWTmHtMQr8cX7l8nl4UFkgwOFGb0A+HLDCuiPKgak0Z1vzWLoj/odrkHT1pfV+avXY+rDKTi6YR9StHW6P8a+jWsx1OOhnvK1eBw+tOdmwy3EoxpYUpgO+OqpobahorYIUw9WYWGZT27htqYJS6ckBXWeTXhRrmGgrjumYRWKNqspYn+lqXtUESheAe+ML1HROQeluaOV/P5G874EHlR586kkSU8zKkjUIMqR21hQ6q0KjLCClsgNA8uVdTGV4avW6inqfT+weQ/GlGj7FsJqd4xxwu6aEIj0OV2m/1ZcF/n47mXVEhKujxsv4OiYJzHlOmUFxVqyCIRSdqZcoHPz8W9xoH4XEh+o07cxo+Vbr8EBtMp9Gvhdo5ZrUOTNQNfLXZj48K3qw8EB16hwq44h7d30ACvHINg6Z/FufS9OPjt8rBxBZJbOp/vQgUykmEzakWkuEpZ9+gWX+AD9YYqZLaYadFy32M8EzsQU5eKT+cm34uoQTeSEXDdOV1ahqScdS/K6UFHZjH73FDxKYuQ92IeErNmGu5Q3G1OT+nBgt7UBR4w7XxUhYY1Ut1Fd8mm/GqrguEgw/K0ob9l6ZXkHVUMIip5vsmheLFLTxDoBkOCV5nYZFhrt2124FhV5Mh+jkVMyh86LyFfPTYEDbpwWL1FFQfynMqbzwMPqCiGQcOuTmHj6t8q1su/jAYybsx663aAIjosEQ7uWCqSgAL1bxfJv0dqtCpV/PvAyWpU0ur5kioFwyxZjFAmUuh2Vg1sxw1JvOh7l5ijL8L9GPd/jpsRk7B1UcASXYdfBK+GePtTtdPgQoXv1svJ+3HFTtD9oHpKvB1r/Ki0Zoner+Y73MroOA6PS5slllY6d2p3HPn9QfHtQ2iBnyR0x3yS8ZXvgS3LDIxujZ64bCab1VUiszDGdcIK2wnLRhGLzlyRzKbhW21f5HLgp/w9+Fkr0kCWTl05iVW9YLps3kTiNxlQ6Pg1f9Xp5nFJ8U8kCDIG71r6JnTt3Bkx/sPcJLGiuS9POFlpqIUtHbfi6VRsKZAVrQnF2/0H0J6dI0SFhmJNJlssLsY8P3UI3weQWHNUFahc6qj9G/3UzkChTVOtIu45trtHMc0jsHUFnOzhbvrkcSD0X6GJ5yL3C5Tg6jKwcQcQxHeXi0P6gq+dhLA6i23xhiDuUdtejKdAMtvr/4q5l3KGiwYtmvTGS+GQBTdX+/6pfTCdG8ZPrU8n16eyIW3yo/XisxUzlv9cvxYIFCwKmx7fIFc4bmfhJMjX9k7G4Lmzo7hrSnQ/G8muM188HpWUEehPPSbdXINyqNrQWARvzk/CUTB0uRB5IPrELp7pVF2vkdGrZh3YZf6CI2Vh6MgrwJd0lnOLFfeT2CBdLuFbirm+xcuLHoc4+ORcfXOPN7pIb16bK2SiJxtKJLy34jlynuKFbVJKrU8J6W6RiwYRCgEU0EvPz05FRBays78EzMnW4EEXv1S50Hxogc/Nhcq3aTWaqxgC+0ywfsnrsAn5xY3M9mpCNx4vdaPdzv0JBb9xKHMUm+DsI3t0+9LvzUVUsE2wQwmSJOYWEdJfM8aPifOQktaEuBq5c3C0ds7u00hS4HRL1Ghu3YJPJ5fFnF77rgsnVDxEZl5yYr7lLmitXYw2EByPAgrFHsYg6RyDgdHpH4CR+wESnxmtcIEQhOsKfr8fAreQbdxkBZIUTa3H08ChkPCzdqzldaHXQ0tEbaVIXmmUvVGj4ULq5GcgtUmM9eV3Y0RiG9SK6uyub4So0xYv8xgB5y7YpglgaEE8SQWg1TfRgJcg6aGN6RCC6ojHFiEUVpqCp0sHeqUj5dAVZuVqA+Un8ZI9dUHdwRMxo38cuI0BN01RdKFR6t6odFQH5uosvhE67HrVBiyLIXEPX75NynSfpOjZiSyHhvQJf9HajYF2w75b9iHlZ38K336ZLfZhyyb5Px9LVzTDx4pEetC4Ctg8WmxH580fg6aWjAi0d7jK/hMi7H4/n2gWQGSbGvJSE7S3dWPaCTUhaPOKw6Ad8WGUnOAJyr3q/RZoxBGlYcGlZOsrAv2wlGGgMnGOYeGM/AFA8ezVzf7CBg4QQplWnkIgr8eEwsXj4daUMwzjKpeleMQxzwRKR6EyaFMYnNRmGYUywpcMwjKOw6DAM4ygsOgzDOEpEvVcipnPkyBG5xOjkbcXKktuQrCz48LYnD83KfCwwv6enD02V2hPlsWYenp7/JFIOFqD4G5k0FNNux5/ykrB36068l7UA/5rdg7ee/wCvyuxouHOeKE8+BNH2Ae6tOarOSx5afB8WyofpB5p34p92hfwQwwXMRPznb26H+uRQr3Jey4MN4xbnP+cMfvfyAbwnk8SnpMseXoAbWwLPiXpO1f8I4vxd9Zll26LZdZhxLIz/P0zY0oklDQ9go2cSNlR+iNg/p+hFkfJUfL3pwcHYUzT7SczurYnRBScu/PvwX/PMT07ZpQ3Oe7t24t7n38Dvmu3F5NWaN5T8t9pkghOMm4r/IlF4SC7qiPSHp+JOuRg5R/FvdEz3kig4+vSQpOrLj+HKqcbToT92GBYsOozBNZtQOL4F1R+F8S4cwckzGEAPjtHd+L1TPXRzPnNeGouzJGFC6E+uXlCY/6PDXSTmZ3pNFhLRtxb3NrVjds56/KNMiiUj5O9Fh6t8P5bnGnfL1upJeF2OQB4qbwk24YPUUtwtHw825wPLUVBbillJctHPTQpW9tD4le3bjg1FJXIhWuxfk6oPcDWN1jYwv9KU3KqsTPiaClClLIdBxwH80/Ny/nNygT6X8yFicaHoLh8r10xgLZsaWcMb+Lcw6xdAR6/9Q6tpV2EUzsgFq+tndZNU1+eqpjfw+Q3aOiG4USb8j0uIiB0dp2wsRPN/RJakRXA0vqnBR1lPYsk1wF8DrN4H8VzNPZh05M9Y/MRrMi10LkpLR234J0kMyJWRk97wixusedU+ZBTuR4H+Wk8gObcUt3dWKPlbGnuRkbcVLpnnKl+BWZ0kBtr25rhMCGUHI7uKBEcvuwKfpC7DyvJYvLRGvCPZ/JrUKvVJdv0Jdsovzga0/Grhi4i4kOkp9dHzkDW6Bfvi5McPyrTbZXxBdZN+15yEhTFxUQi/su9tOIrr8hagLJYWir9LJa0GIQpKrEQ/LmDmA1aX7Lq8+zC/S3Uf32pLxMzbJ8qcIbA5rkB6ccxeh0JkF7zHBuCeEOYrQ0LgIhSdSuSRpdFabRekJUsiz43uxjeNvM15eNuXCPdcU+MmC2NjmfoIXvvuL9CdlAbLJ5rcM6nJ+hNi2YNSiZvcZDXpls0W1DX4kJx1ly54ERPwbh31FR3qe6MJ//dEK69ZHY0xullEjE5BQl8XDsnFWDIqewH+9Jv75LQAM0036IdumEjWh2HZvLfrMxxOzMCdUQsDWRM5EzHQ/JlhNdEdXjTuG7NMFYiIHtKWRFyVRuKSlYFRAfWdiIVkhRxuMoKz7+16H3t7J2LaNJkgaPtAD/K++r8kHFclhiC26nGZz1m8+GtvO+3uWhsX6zU8sXhxRFaO4OITnbyJSCYVPxUkmtp9PPK3T7WXTSchceNu7xGsocnfEom4bKXeRrnKVGhu9VHSE0QwGjrQTiKjv0+5eArVpM3yrqF/TIxa+gZF9Copd2Rl2kmNT2ZQA5pwlXrHN0RJ67WJDbbuRQy5LoUsjoYeRcjuHJuEga4emdOLMyfl7CAcFkKjIVweS+/TBQDdhPrpZnS9XIwVF5/okCk5VM9Q8nizUCyHK8zXejYXaa7VdnSTK2YWnujKFvEhrWw5LXqABCEGJPldHG7zqzfbcJragvZiMG9hOnzV1heAKXe184SIsxiipApTqLGNoRg31mzVqCIXPZrrQpYLndtXP29DR+ZEP7FULSGDJGHIOIro2YsqfhUn6/cidK9K8AW5NLOKjTiMwRY0H+xFcu5Swz0qXopZST58IN2p8GiBCPSrRFl2w3/D10OWTlWlTBiEh55DTU0Nap57UCaEgOIumT854/f1COF+kVNYob2InqaA137E6a4WnF6819JLlo5N93PUqGWPyr7ZKHvazeTaHcW75nErSvc3WVgRxJHG5dyMcYplQ+4WMjAtRU0XwXDSIVyXY5R557ybcV3vZ3gr2iC2FLzryC1VEPUnKzoQMdaHjmtxiHEiGxTrt/dr/FUuG4hAMl2jr6zGHTIlHC7awYHZVUf03ifB4L1Xvfikcjrq5EA6JS+1zug1Ugb0peEDJWDs33NF+PUwDVm2qWdLxdz7FVh+d2OFHl9SEKLzi0mAf8+A+NCf+KigBfMgQb/eK9NH/NRAcxFyzMdFWN85pA4KzDr2W9z7t1h9fUHtpbEOUAtMC+yJ0QarqeuaY0AK+iBB8yA6A/MgQWvZdj1E2j7C6zVTe6aM8rT9mHvHrL1X5vLVfYreK1tLRBls6S8W5rqbj5vK3XoG838BvGRxz+Q6NgMqQyPYINE7sPqVX+OWxAF8+odf4undMjlEeETycEAIlvgoobkLXRExWL8Ces0mNOQA1X9aEX63+UWMIg5+o3KHPeJayOrCf7y71sbSIVvnuRrcM+ZT/P5XT+N9mRYqF2WXORMenvG63a/z6Ay6BfsHn79ZgerjmSicHftu0gsSYVGQC8KC48fo9fhTjgsfNdkIjnT/IxUcAVs6wwIb98p/8KBOBM9eMZcU8X72ikWHYRhHYfeKYRhHicjSYRiGiRS2dBiGcRQWHYZhHIVFh2EYR4lYdJav60RrfRta3xxAKM9YMwzDCKIOJItPpxZ0TsDN6y6TKQzDMIMTtXv11P5kJKaek0sMwzDB4ZgOwzCOwqLDMIyjRC86LSPQm/k9npGLDMMwwYhedLyjcPOzI1AgerJeOCsTGYZh7IledB7pQWsRsDE/HRmPjZSJDMMw9sQmptM5ApG/Cp1hmOEEB5IZhnEUFh2GYRwlatF5Zno3esm9YhiGCYWIRUd79mpZZjLq+BEIhmFChF/ixTCMo3BMh2EYR2HRYRjGUVh0GIZxFBYdhmEchUWHYRhHuQRFpxL/7D2CNcq0HwV5MjkmeFDlfRZeZVqLipiWbUUZkjCMHqB9tCo+51Scx8/W/SiXmAuBS1B0SvC6ZxI2eLajVabEDi+KPKvg8dTDJ1PiwiM9WP3Ty7E9hg/Qqo3aOlUVy8x4k3c/3vKuwKNy0Um2rEvEyZ8ew7uPyATmvMPu1QXHWby7qBu+2iQ8JVNiRX9jFQmmEE11KtosMy4AXiwSdVqP0gaZEDNGYv6zY5G2qIff+XSBEN3gwOIGrCl0ywWgu7ECG8vk8+Z5W7Gy5DYkq0uAbzs2FJWo82K7GXuxpbMAy3MTlSTLtliOgtpSzNI/+O/D2548NMuloGXrCDerAKcqp6PO70J2le/X9xtQdkgIN2sOTlcGNhJhUSzRT0kfmizriO3yYZwxgXUd4Q6sTk30e02IGxW19wMHu5CTm05VrscO5Cv78VWTeGAFvIXADs8mvCi3QLE1TdSroLMKC8tsbDSxbl4XKhZtI1tOYD0+T/laPI5tqEst0o9N2a9ZtJT9Ud0kQuAWlqXbHK/AdMzCCirJRoKS3mY9BgW/c9bT7FfPKWiu7EKBVoYl32DwDwg8iOdq7sGkI3/G4idek2lMPInc0lEEJw2fVApXRp0M0aAGT6LQXa3lkavjXoaV5aaP1dDy8tQ6Nb/ah+TcpciWWa7yFZjVSUIiy91gEYUQyg4G1Xt57kkSGnX7LY1puLt2K1wyOxpE41ySShe9tCQqGoGcEsOteLSKGg8JhmJpVDajn9J81WZR+hHzsr6Fb7+dWzUaOVkkDGI7d74iIBWNfXDP8ACbvyTpTEe2yV16dIYQpy/9GnDkJOQWKftUj4v2S2JBe1ZRBCeFhMSwolRxk+6ocqxCULR80zE3bMNCfR1/hNjmw6VbaFVooquktErfM5GOJSUpqFPyye1NysZSG7dR+YBA1vf8uaQLgAhFhyyRPDdZJ5sCrAiBq7wAGT0fokG/E5bgdSEsWXcZjZvyt2jWyea9aEUaXOYgonumLkJmQio7CNkz3GitNkSsvawOrUk3ITvqAKYHS3NHw0eNSLvLesu2oalHEwMPsoVlsk/mNnyEAz10POPNdsA5pCVeiZMtctEPo+w21FksFi/e1ARIQeyLrIlq6/1eCIcR0wkzaEtiqVlJ3t0+9Cel4HpliYQhL50sm20m8YwRxfnISTIfqw+lm4XoTjHFh4TVpFlHXjTTqtZzKhGv1U08Z2N1vYYnFi9mK8dBIhSdTIwl16f7eJBXd3UeRbucDZf2sul42+fG3bIXKsCKibjs5XClAhmFWu+WmJYhQ+ZGTx9Om7XAQhtOk8jowpA3G1OT+nCAGrCOh0RHzoaLIgRaYyyeQhbVngARsMZ0zBZWNKRjDF0L7ccHPfDo6OnCITkbFd4ROIkfMNFsJDHnhQhFpwWnqAEFJXWixfJwjQ+vOTUXGe5Td26pVXiiLLtVd820KTDuExmjMcZyK1UbpIoPX3fSD7lGiqVRQnacv3WgNIwIUSwn1aoSrpVuUcUdVUzjhm5RSdwpMv4TJoqgX46jTp0WZlAiFJ0taD7YSxZDg60L1L77C3Qn3YY83beuRF5uIlobHojAQrEKXHRlB6+3ztzV+GNNDWpeWY07ZNLQqKa9OdbhKZ8Dd08z3hSuIKUXuM1xDS3uYYZEp/dbpGXKxbAg16Ohjfa/FgWpcp/hYHaXau2Cv4Phg/cguXaFQbrEGzrov7HGnEJCxqoKyrXaaK5cffixqsxzSOwdQeX5IwLJ4f7XTDREHEgWLpAShNXdFJMbRAKwsfJDJOtuzDIkN1bg9ZAagui5Mspc4y1Vgsp6kHqoskWAW6ZnIBGzSsS8MUjQrt5rQg0ki4CpEg8RjXI0ckqssZEXi1ZhR2c2SmXcpDS3Czu0npSGbajzpWOJzNOmt/QGJbgMuw5eCff8CL8PLxpp0mjg4Ecy9hMimzdhh163IoxpCG8ckrdsPSoaUyzHZj0uL4qqSRALtXzjnIngu5Km9D5pddAETASi69Gux6KKkNNpxJbCQXnZ3MErbN7lfRhneukncTLunKumMPGF36fjFErXsOhlMXUJK2luHLB0q5/Fu/Vks9WmY/5LMilkBu/KH9Z4BvDZqnOoy7cf+/TgczW4Z8yn+P2vnsb7Mo2JHxFbOkyY2MQiPHPdlNaFry0CMRLza5PhjmAwm9olHxhAHt6QiK86hZN2gy0feg415Fqx4DgLWzoOYh04KLAbDKdiP0jQHr3cQQbGDWfEeVyJFJtBgcz5gkWHYRhHYfeKYRhHicjS+d3vn1d+S/99tfLLMAwTKmzpMAzjKFFZOv/6698ovwzDMKHClg7DMI7CosMwjKOw6DAM4ygsOgzDOAqLDsMwjsKiwzCMo7DoMAzjKCw6DMM4CosOwzCOwqLDMIyjsOgwDOMoLDoMwzgKiw7DMI7CosMwjKPwS7wYhnEUtnQYhnEUfjE7wzCOwpYOwzCOwqLDMIyjsOgwDOMoLDoMwzgKiw7DMI7CosMwjKOw6DAM4ygsOgzDOAjw/wHK+j0g81jFbwAAAABJRU5ErkJggg==;" vertex="1" parent="1">
                    <mxGeometry x="50" y="50" width="301.99" height="160" as="geometry"/>
                </mxCell>
                <mxCell id="3" value="&lt;font style=&quot;font-size: 14px;&quot;&gt;03 .&amp;nbsp; Function Expressions&lt;/font&gt;" style="text;html=1;align=center;verticalAlign=middle;resizable=0;points=[];autosize=1;strokeColor=none;fillColor=none;" vertex="1" parent="1">
                    <mxGeometry x="25" y="10" width="190" height="30" as="geometry"/>
                </mxCell>
                <mxCell id="4" value="" style="rounded=0;whiteSpace=wrap;html=1;gradientColor=none;" vertex="1" parent="1">
                    <mxGeometry x="400" y="47.5" width="259" height="200" as="geometry"/>
                </mxCell>
                <mxCell id="5" value="&lt;font style=&quot;font-size: 14px;&quot;&gt;Global Scope&lt;/font&gt;" style="text;html=1;align=center;verticalAlign=middle;resizable=0;points=[];autosize=1;strokeColor=none;fillColor=none;" vertex="1" parent="1">
                    <mxGeometry x="470" y="12.5" width="110" height="30" as="geometry"/>
                </mxCell>
                <mxCell id="9" value="myFunction" style="text;html=1;align=center;verticalAlign=middle;resizable=0;points=[];autosize=1;strokeColor=none;fillColor=none;fontSize=14;" vertex="1" parent="1">
                    <mxGeometry x="536" y="97.5" width="100" height="30" as="geometry"/>
                </mxCell>
                <mxCell id="10" value="" style="rounded=1;whiteSpace=wrap;html=1;fontSize=14;gradientColor=none;" vertex="1" parent="1">
                    <mxGeometry x="526" y="137.5" width="124" height="100" as="geometry"/>
                </mxCell>
                <mxCell id="17" value="" style="rounded=0;whiteSpace=wrap;html=1;" vertex="1" parent="1">
                    <mxGeometry x="60" y="374" width="661" height="206" as="geometry"/>
                </mxCell>
                <mxCell id="18" value="Global Execute Context (GEC)" style="text;html=1;align=center;verticalAlign=middle;resizable=0;points=[];autosize=1;strokeColor=none;fillColor=none;fontSize=14;" vertex="1" parent="1">
                    <mxGeometry x="71" y="327" width="210" height="30" as="geometry"/>
                </mxCell>
                <mxCell id="19" value="&lt;ol style=&quot;font-size: 14px;&quot;&gt;&lt;li style=&quot;text-align: justify;&quot;&gt;&lt;font style=&quot;font-size: 14px;&quot;&gt;&amp;nbsp;first line&amp;nbsp; execute -&amp;nbsp; print myFunction : undefinded&lt;/font&gt;&lt;/li&gt;&lt;li style=&quot;text-align: justify;&quot;&gt;&lt;font style=&quot;font-size: 14px;&quot;&gt;&amp;nbsp;second line execute - myFuncation assign function&lt;/font&gt;&lt;/li&gt;&lt;li style=&quot;text-align: justify;&quot;&gt;&lt;font style=&quot;font-size: 14px;&quot;&gt;&amp;nbsp;execute - print myFunction&amp;nbsp;&amp;nbsp;&lt;/font&gt;&lt;/li&gt;&lt;/ol&gt;" style="rounded=0;whiteSpace=wrap;html=1;align=left;" vertex="1" parent="1">
                    <mxGeometry x="60" y="414" width="390" height="166" as="geometry"/>
                </mxCell>
                <mxCell id="20" value="&lt;div style=&quot;font-size: 14px;&quot;&gt;wiindow : { }&lt;/div&gt;&lt;div style=&quot;font-size: 14px;&quot;&gt;this : window&lt;/div&gt;&lt;div style=&quot;font-size: 14px;&quot;&gt;&lt;br&gt;&lt;/div&gt;&lt;div style=&quot;font-size: 14px;&quot;&gt;&lt;/div&gt;&lt;span style=&quot;font-size: 14px;&quot;&gt;myfunction&amp;nbsp;&lt;/span&gt;&lt;span style=&quot;font-size: 14px; background-color: initial;&quot;&gt;: undefined&lt;/span&gt;&lt;span style=&quot;font-size: 14px;&quot;&gt;&lt;br&gt;&lt;/span&gt;&lt;div style=&quot;font-size: 14px;&quot;&gt;&lt;br&gt;&lt;/div&gt;&lt;div style=&quot;font-size: 14px;&quot;&gt;after 2 line execute&amp;nbsp;&lt;/div&gt;&lt;div style=&quot;font-size: 14px;&quot;&gt;myfunction : f&lt;/div&gt;" style="rounded=0;whiteSpace=wrap;html=1;align=center;" vertex="1" parent="1">
                    <mxGeometry x="447" y="414" width="274" height="166" as="geometry"/>
                </mxCell>
                <mxCell id="21" value="&lt;font style=&quot;font-size: 14px;&quot;&gt;Code Execution Phase (CEP)&lt;/font&gt;" style="text;html=1;align=center;verticalAlign=middle;resizable=0;points=[];autosize=1;strokeColor=none;fillColor=none;" vertex="1" parent="1">
                    <mxGeometry x="82" y="384" width="210" height="30" as="geometry"/>
                </mxCell>
                <mxCell id="22" value="&lt;font style=&quot;font-size: 14px;&quot;&gt;Global Memory&lt;/font&gt;" style="text;html=1;align=center;verticalAlign=middle;resizable=0;points=[];autosize=1;strokeColor=none;fillColor=none;" vertex="1" parent="1">
                    <mxGeometry x="527" y="384" width="120" height="30" as="geometry"/>
                </mxCell>
                <mxCell id="23" value="" style="endArrow=none;html=1;fontSize=14;exitX=0;exitY=0;exitDx=0;exitDy=0;" edge="1" parent="1">
                    <mxGeometry width="50" height="50" relative="1" as="geometry">
                        <mxPoint x="447" y="415" as="sourcePoint"/>
                        <mxPoint x="447" y="375" as="targetPoint"/>
                    </mxGeometry>
                </mxCell>
                <mxCell id="24" value="OUTPUT :" style="text;html=1;align=center;verticalAlign=middle;resizable=0;points=[];autosize=1;strokeColor=none;fillColor=none;fontSize=14;" vertex="1" parent="1">
                    <mxGeometry x="55" y="615" width="90" height="30" as="geometry"/>
                </mxCell>
                <mxCell id="25" value="" style="shape=image;verticalLabelPosition=bottom;labelBackgroundColor=default;verticalAlign=top;aspect=fixed;imageAspect=0;image=data:image/png,iVBORw0KGgoAAAANSUhEUgAAAcYAAABVCAYAAADT50RwAAAAAXNSR0IArs4c6QAAAARnQU1BAACxjwv8YQUAAAAJcEhZcwAADsMAAA7DAcdvqGQAABWcSURBVHhe7Z1fbBRHnse/d1KCchnnYMBBEdjBnFFYvF5NpMQ54YUHS8by7T6EPw+HEsnKsoS8RJEMPJ+jfVrxR4ryEpIlrKVF3AOGPGSFwJIfwoGCiZTRZvkTxYuJzSpKHMa59aCI8HBXv6rq6eqenp4ZT/vP2N+P1MJdNd1VXV3Ut36/qur6p82bN/8fCCGEEKL5Z/svIYQQQhQURkIIIcSBwkgIIYQ4UBgJIYQQBwojIYQQ4kBhJIQQQhwojIQQQogDhZEQQghxoDASQgghDoviyzdtv+zB2odfYuT6XRtSjg14oes5rH7MnD3KOdc++wK6Nq8G3LAk0fdfgW8vXsENG0TIkmbrH3BofwdS+mQGX3zQiaGr+mRh2PsRBnZsxOSlX+DkGRtGKmehyq+O3ltdWowbXtyI1T/dw8WLF/UxJwJISD0h4nXqLxjQxxXs3mrDFdvf9sLNsW+vjaiIPuze24Fp1ZgNvCbHPIiiNKDv/gEt9pSQKAL1+u0BG5oMdWkxVm9hJggtRrLoGMC+U934wbPktIW3BqOvvYxPzA98RHS2fo/BN3+LcRsUT+je80HVeSTLDqkjm7MY+C8RRKmju4AELdHZC2NYIALnbejsWYmHuRVYnTb+zoC7UyHitv5Je6Jw4ze82IXn7HVAHvdsGuFrDNHx+b9fxJW/mr8FiVv58D5WpFdD3/nRfXw58hm8HJVKU2Pds15sUTwhC0jLW1fQlx62jYQ9zzREuqzCvy2NaWya7FmBiXPm2rD4Bs7l2gx+yDaiXeVDyGeP4eg7g/pvjXWreZi8lklTrNd3D6Jd+3QjXLoBl28wTbEuNuVGsSpj4/OjVXYO/Hz597XhhfyZdLrS5t5QZb0bwxhv3RWRZ3mW14Grt9CyIypPpdIU3HIQ7mDE6QTpPDTbk6I057v8wu80lG4oTf9dexSXcRSSv45cqI7VwBy6UlNY3fAPfCnuztv3gfQ6JZcGLWDwXaH3HtgI4eedeG7Ft4W4i38H1v/SXHnjf/zfi5Ca3/gCZeK/xP1HNiBEKv0U/nHb/garse7nNiImTSOK3nXqUM9S4vaELAhN6Qbkc6aJkgZChG9kAlj1dJ8OM42LcTn1ZaYwEtPA+AzgpHadnsOkbsysK7Wia4WNaG+9hUG55oNRILMT222MEcVG/57qMAJu07x0xzS8Ns5PcxBDb0qY5CmEbmB/hvHCPc9hOnMw4DZuynjxx/AFOtBVkUtZxEQsZu++x5TQvW5d1ZJflZfmXSYd9VyeKHqCkcrswsqr5trBLNDe45ZfA9rVfYbsff08xaWp2LsT7TklFDpODsczoMqhQ/JQiHPFbyHKz6tH9rq8DbZs73Hd9OqouH65DGBT8wzGrycjisIcCuMj3P+btci+/hEPsQJPPCsnbVj5pIqbjLa32laqvsOT69HT02OOder88SewwcbXwqPcHXz2tfx1Fz/+BKx4wtw1Ls0NTz+Fxx58a68jZLHSohpT02sublycxukS0HXqI1+k5gwlpmesQFy9h2k0otE27Ns3b1TWyPtBa6VWnl2D1MSwc88BfBXoHIgF5KU5iKlcMK4kW7ehJaUEbL83niUWVwNW6rZMUGWrhH/VDhW3AxgJW1HK0vGs9vHrt5BPrw+MnU5e9X5vREv/tlyaX3+PvBLjgaj3KGWd6kBfaJy5LHNVfmWYzM2gScqu5BihrbslBVM6EbuwKuH6tCgn34gbtGC9yeG4POeKhUiTkCSQxsWzTIwrqQ+NaWD6u4ge9JnzqtfuixSpANd6tUfRWFZ+BnlH/GsmLk0lpkd1WBabtHC6Iuh1gt5XlqUR1uomW80v4+90mue7nTGdgKomXRnXcMtYci5UjxqF0bMCN+CFf3PH4OJ4gIePHsNTTxtrTcb23HHDBw8fIbWus+B2nQ/i0rz740NlTa60cW3oDIw1ErLwaEsEd/CV13CKqy3lnLvouClMJdK79oRANVB7nXGiMnxy+44Scse1GkYsotSa4rHGOLQV1e0LhLgUk3CvWQts91ulrKMB7BMX5JlOHL00hfa9pRt2cRti7HL5cbmyaXoYERyZcC1YD2OBDmZnKrPsai4/ESkR4ll6I868rATyHCaL3rsdBiiyKCV8bkRRmL0wfv0Zvn3wGFZvFvfjc1jx3T31n7MS7uKzv8mY43PabSlje1/m/FG7u9dHcO9BCus9t6Y6ul6sxJEqaxtNXmR9Y2qdubbTG0eMITbNv15x4tbi4e1Kn5OQeUIsCO0iNRaCdukVxp388UV9yGxPd0xqtqg0R1WDbNx9B5W1GjFuVQrVCA5mG/38qiNg1eh7b/TjC42i9ywymcNL21pLugyUMHnux/0ydhWaXDIrjKsUmYPmvvrwGn/Jj+PGU881khM3piMO2uVpruvCuQob8bg0zQQqP9zct2BNyvitE9fXegtDhTQXovzi8MTUO2RmaWV1s+Wtbi2gqRJlVCuLYrkGIYQsNSqfAbxcEGGe56U/s4TCSEidI71lsriQcTNXGJfjO5IyCKBnIxtvhngD5oK7t6/jj7/fZ89mD4WRkGVKcL1bkKJ1h0sVvUyh1PhocH1gtdBiVATWq0asnVykUBgJIYQQh0W5XIMQQghZKCiMhBBCiAOFkRBCCHGY9RhjR0eH/YsQQghZnIyOjtq/KoeTbwghhBAHulIJIYQQBwojIYQQ4kBhJIQQQhwojIQQQogDhZEQQghxoDASQgghDskJ4+b1uLn/eX1c2/q4DayQ3Udw/vwR7LGnQv+Hwzh5yJ6UQH4zPKyOD/ttCCEkceRD24U979zd4hcIu+fgYt6ZflGzUOVXR+8tIWFswMfb/gXXPvocWz74HC9d/cmGV8Chkxh+I43LOw/jrA0Sjv85i3TPSZSUPHVdLy6gu7sb3b85bgMJWabEiJfsomHCzVFdw2R255++9Au9jdDAa/OwO4I0oO+W3gmfLHfCGxzbI8E6k8wCf7EWMw9x5L+ncMoGVYRYim+0Yuy9nTg8ZMMcxCLcdv8Edh52JdMgcW03u7HvqA0gZNkS2gBWb6W0BqNRWyaJ6Mgu/m/+FuM2KJ4F2Fy26jyS5U7SW3wlIoy/+4/nseOHG9VZitiDI+cPIH0lRtzEmuzM4UTImjTXvgL8KVpQCVlOhBsFfZ5pwKSy8k6e0UEFKm9ARBB3ocmeFZg4Z64Ni2/gXK7N4IdsI9pVPoSi/R1F/Ar79MHmtUya2lI4iHa9eWLE3n46D/7eim6aYjVvyo1iVcbG50er7Bz4+fLva8ML+bN7XKbNvaHKejeGMd66KyLP8iyvA1dvoWVHVJ5KpSm45SAE940M7rMZTnO+yy/8TkPphtL037VHcRkXI79JtvNWgyu1AR/bMcXd69RZW5v+++PNNroch3qRQRYXZmPx7X4Jys7ENYoiIWhKNyCfM02UNGAifCMTwKqn+3SYaTiMu6kvM4WRkg2MywBOatfpOUzqxsy6Uiu6VtiI9tZbGJRrPhgFMjux3cYYUWz076kOI+A2zUt3TMNr4/w0BzH0poRJnkLoBvZnGC/c8xymMwcDbuOmjBd/DF+gA10VuZRFTKTR9e57TAnd69ZVLflVeWneZdJRz+WJoicYqcwurLxqrh3MAu09bvk1oF3dZ8je189TXJqKvTvRnlNCoePkcDwDqhw6JA+FOFcsFqL8vHpkr8vbYMv2HtdNr46K65dPy1vdSjiHExNFoQZhnMGvP/gcWy5PqT/v4Yj8rY5f37bRZejf0oz82LWQJViOfpyUyTavAqeLrEhCljMtqjH9CzpyxyIaF6dxugR0nfrIF6k5Q4npGSsQV+9hGo1otA379s0blTXyfqINGZ5dg1SgcRzAV4HOgVhAXpqDmMoF40qydRtaUkrA9ntjWWJxNWDlszZeylYJ/6odKm4HMBK2opSl41nt49dvIZ9eHxgHm7zq/d6Ilv5tuTS//h55JcYDUe9RyjrVgb5qJ0nNVfmVYTI3gyYpu7dLCaKtuyUFcwBdGeCLi9ULahw1T7753cZGzEz8b3Vji9iDZ1YBuW/jpW3P2jQw/Y0jgMexr7sbJ8Za8coRdw4rIcsXaVw8y8S4vvrQKP91vvNcbw5nzqteuy9SpAJc69UeYRc18jPIO+JfM3FpKjE9qsOy2KSF0xVBrxP0vrIsjbAu5lmg4+90mue7nTGdgCon0Gx/W9ysyVqLQo3C2IDn1z3Aza+qGVuslD14qTWFiZvFM06bV6fKiiohywVtieAOvvIaTnG1pZxzFx03halEGhJPCPr0zNXCOFEZPrl9Rwm541oNIxZRak3xWGMc2orq9gVCXIrNM6psIjoH1WAtsN1vlbKOBrBPXJBnOnH00hTa95Zu2MVtiLHL5cflyqbpYURwZMK1YD2MBTqYnanMsqu5/MT9K0I8S2/EmZeVQJ7DZNF7t8MAURalzWPS1qJQmzBu/ldsnJnGJ1P2PElKjkGKtZmHHVIhhIgFoV2kxkLQLr3CuJM/vqgPme3pjknNFpXmqGqQjbvvoLJWI8atSqEawcFso59fdQSsGn3vjX58oVH0nkUmc3hpW2tJl4ESJs/9uF/GrpKYjGFcpcgcNPfVh9f4S352YZXnYlTPNZITN6YjDtrlaa7rwjlnAk0ccWmaCVR+uLlvwZqU8Vsnrq/1FoYKaS5E+cXhial37AIuVV43paMRdP8mRw2zUh/Hqf9sw5aJamejGvYcOY8Dqy9Hr0GMXcYh44xtuNG9D1y9SAhZrCS9hKD+EWGe56U/s2RWwijLM2Qmqp50U+3axQIicNuQKxI/Ce8FLpZYxqFFM43LFEZCNNLbJosLGTdzhXE5viMpgwB6NrLxZog3YC64e/s6/vj7ffZs9izsDv6yTnHLDcdqrGx9oizu722SWVLRi/8JIeUJrncLUrTucKmilymUGh8Nrg+sFlqMisB61Yi1k4uUhRVGQgghZJFR83INQgghZClBYSSEEEIcKIyEEEKIA4UxCWSm7HDMFlmzRSYnhfapTJpK9r0soJ/T/F6W2wwn9cyx5ScTsqrI42Kminoi7+V86OtOEha196gO1/XEfDIxcJ2kOcd1iJClBoUxCVrSSOVzmLCnSVH8SbwkMYIj23pVvHWXPKd6yhvq9/L1IUzesEtmIsSrGlGPLb9mpFPz90EHLfhF4iOCk0AnoOJ6EvXJRBOWvx++2obLd4d3P4M08hj71Llu6DAuT2f4CUVCqoDCmABzJWAiPsUNYTL0f3gAmekLVS130c+pxdA0xv7n+kS8jGB6VFMmsb/VjX0O38zjTipFZS55SKDjU3mZFJen10EIiJ7GCdfCW7zrjGz6jUxv7cJOyDKhPpdriDXS4y/AmnA+BuCtcTRM4IL3IQC7ZvLE/W04kDGrlgLrIMXl9EbGX880eSG0vlIJiReZzwb2iJQ0S26aHLqvm9d4yqzpjCmDomdRVkTW/ZCCXBu5z+UsibiflIm7yXTgvVRTfva9lf5Ckv+cSaxrjcyLysP5tbYTEZOmWJuv4DLGWnsLdSVcN2Of03mf4TIy6c72wxam/kbtfaq/QJVBsH4QssypO4tRu7qkEe7uRrc93IanF0rQbPiFyWZssy4k3Vtv6jWfoZP4ixNIrfYaon6c1J+g8+8ZFsXWsRM27gSyyKC34DbsR1tTCVefNHayRZZ3T5Vmc2eF7kXZczJVwlLSjSiU6EfcVzegzrO8l1Wy6N5HPU9nMyauJCSKCl22qQwOyJZg9uhVZWKsGyk/IwhVl59Cb08WZTVHPGftVpFYwtZSkzK2rmDJg3ZrlklTLPyUOhcBkvgT2Tyat3ixZepJ6H0WWZZiDRZc10kzvxY5IYudOhPGfvRK7/ZPEY26alx6V6letmNZTNzPO+KnkF64jZfG3G9wJ5DLp5B54zyO7LZBlj1HXgm5HM/im2kgvdbKW0lXnxGggGD0pKPzHkXJ8Sgl4nKf9xzLYTyHfCoNedL+X0kBnS70/vf8e2uwQdWCG3bT1YYIglhGRvjU4YqxfAxeWU/NPZ5oGhduwXKJdZVGjbUJqmxfzSB30bFyhr5Rd0njmdD7q45mnZcJuf9aVSt0mXpiWS5NO9anLEjv2c4e3ul3sMrUk4mL/vuM6gwE62ty6Dzy84qEBKgvYTzUhuaIMRShePzG3bbK/u1YScGtq87i8E5p1E8Dr0rj7Qtk8Tif6fkXxnpKCpgZ+8m6Vmh35e6q4uexRDSwvvhJ4+yOQ5nnDuS/4gkglWLSDFhCThr6OcQtXSgDdbhu0dj8mDIstrIiwmPqRsXoslUcegn49ILqLCnRU3+3TkvZlktT4idwuZQrN7aeuB0VqV/FnQERsNm7iUuVIyEkivoSRm0ZteKlUlbBqmdUM23Qll5h26pww1DKrSUCeQJZZT2mnU3VXKuz/8NeNE9e9i2ygIApay4wEzN4nyLEhaasqPC0fCEgyOLCC8yUdCwjFfeKGIl/9sTGT1NPsFHWWrHFlSARLt8iUXfeS5jY8gt1Avo/dC16t2zFig67h5Uldl51ciKWN5RExGs6jd4t36j3azwDkPwVOhYxaUpeYzoc8fXEtzqPnFf1S+xtt27K+1f1ZNZLVkp1Gmz9WxJLYQhJkPoSxqHDOC3DOm94bjn/P/XZw6f12JXntjzQOuZPXghbWYFz24Da68TVJ+OJnjvs+G8uYKKptxCvxzAdi+fsp2PIF+LbcKMwYeI49snYX8GFqI5Kly8ojt+cQCpzwFwn45RemuEyCGzPdRbXxvKFNLfdz6qGOlm3aRERlpB2rdoZq+H3IofbEJcuP8XQNYzlm9Frr2u76T1nuGxjdmOJEeVImlTNsJ2MifuqnDNpa4HHp6mt9igL3xJXT25MihtfwmWCjKpvkS7X2Vp81lWb4JgyIUsdfkR8KSMWQdHsU2WtRG73tdSQDk/0TMzlRGFCmuu+9ihM+uEYIyEudTcrlcQQcLkaS0Ev/LYhhuO4IBbnr6pwMdYZIgbG+lreoigzuMMT0jTWNWtmd1MUCQlDi3GJoS0Eb71gYC2mi1hT5fe9JHWMWIOl1n8SQmKhMBJCCCEOdKUSQgghDhRGQgghxIHCSAghhDjULIz626XD0YvUCSGEkHqjZmHU31pM5APOhBBCyMKTnCs15nNYhBBCSL2QjDDqb0yW/hwWIYQQUi8kIoz6A8mEEELIEiARYZRxxguQDySf5DgjIYSQuiYBYTS7U5gd2vndRUIIIfVN7cI4BzvCE0IIIQtF7cIoE2/07vGEEEJI/VOzMMrEm8JO84QQQkidU6Mw9qM3A7vDOSGEEFL/zFIYzYSb4eFepLOnuacfIYSQJQP3YySEEEIcap98QwghhCwhKIyEEEKIA4WREEIIcaAwEkIIIQ4URkIIIcSBwkgIIYQUAP4fBRyUh8aybGgAAAAASUVORK5CYII=;" vertex="1" parent="1">
                    <mxGeometry x="82" y="680" width="454" height="85" as="geometry"/>
                </mxCell>
            </root>
        </mxGraphModel>
    </diagram>
</mxfile>